<?xml version="1.0" encoding="utf-8"?>
<!-- Generator: Adobe Illustrator 19.0.0, SVG Export Plug-In . SVG Version: 6.00 Build 0)  -->
<svg version="1.1" id="Warstwa_2" xmlns="http://www.w3.org/2000/svg" xmlns:xlink="http://www.w3.org/1999/xlink" x="0px" y="0px"
	 viewBox="0 0 400 100" style="enable-background:new 0 0 400 100;" xml:space="preserve">
<style type="text/css">
	.st0{fill:#FFDE00;}
</style>
<g id="XMLID_2_">
	<path id="XMLID_4_" class="st0" d="M62,64.6c-3,0-6.2-0.5-8.7-2.2c-2.2-1.5-3.5-4-4-6.6c-0.8-3.8-0.3-8.1,0.4-11.9
		c0.7-4.1,2-8.1,4.1-11.6c2.1-3.6,5.1-6.6,8.8-8.4c5.7-2.6,12.7-2,18.6-0.1l1.6,0.5l-1.6,4.9c-2.3-0.5-4.7-0.8-7.1-1
		c-2.2-0.2-4.5-0.4-6.6,0.1c-4,1-6.9,4.5-8.4,8.1c-1.3,2.9-2.2,6-2.7,9.1c-0.5,2.7-0.9,5.9-0.4,8.7c1,5.2,7.2,5.1,11.3,4.1l0.7-0.1
		l2.5-10.9h-4.9l1.3-5.6h11.5l-5,21.3C70.6,64.1,66.7,64.6,62,64.6z"/>
	<path id="XMLID_6_" class="st0" d="M84.4,54.7c0,2.5,1.9,4.1,4.3,4.3c3,0.2,6.1-0.2,9-0.7l1.6-0.3l-0.7,4.9
		c-3.4,1-6.9,1.6-10.5,1.7c-2.3,0-4.7-0.2-6.7-1.5c-4.3-2.8-3.9-8.9-3.2-13.3c0.5-3.4,1.6-6.7,3.4-9.7c2.1-3.4,5.6-5.9,9.6-6.6
		c3.1-0.6,7-0.4,9.7,1.3c2.4,1.5,3.2,4.3,3.1,7c-0.1,3.4-1.5,6.3-4.6,7.7c-3.7,1.7-8.1,1.8-12.1,1.8h-2.5
		C84.5,52.3,84.4,53.4,84.4,54.7z M88.3,46.5c2.4,0,6,0.1,8-1.6c1.6-1.4,1.9-4.8-0.3-5.8c-2-0.9-4.9-0.3-6.6,1
		c-2.1,1.5-3.2,4.1-3.9,6.5H88.3z"/>
	<path id="XMLID_9_" class="st0" d="M105.4,33.9h6.4l-0.3,24.6h1.3l11.6-24.6h6.6l-20.8,42.9h-6.5l6.5-12.9h-4.6L105.4,33.9z"/>
	<path id="XMLID_11_" class="st0" d="M132.1,54.7c0,2.5,1.9,4.1,4.3,4.3c3,0.2,6.1-0.2,9-0.7L147,58l-0.7,4.9
		c-3.4,1-6.9,1.6-10.5,1.7c-2.3,0-4.7-0.2-6.7-1.5c-4.3-2.8-3.9-8.9-3.2-13.3c0.5-3.4,1.6-6.7,3.4-9.7c2.1-3.4,5.6-5.9,9.6-6.6
		c3.1-0.6,7-0.4,9.7,1.3c2.4,1.5,3.2,4.3,3.1,7c-0.1,3.4-1.5,6.3-4.6,7.7c-3.7,1.7-8.1,1.8-12.1,1.8h-2.5
		C132.2,52.3,132.1,53.4,132.1,54.7z M136,46.5c2.4,0,6,0.1,8-1.6c1.6-1.4,1.9-4.8-0.3-5.8c-2-0.9-4.9-0.3-6.6,1
		c-2.1,1.5-3.2,4.1-3.9,6.5H136z"/>
	<path id="XMLID_14_" class="st0" d="M147.2,63.9l6.9-30h6.4l-1,4.4c2.8-2.2,6.4-4.4,10-5l-1.9,6.7c-1.8,0.5-4.4,1.6-7.7,3.2
		l-1.6,0.7l-4.7,20H147.2z"/>
	<path id="XMLID_16_" class="st0" d="M190.5,22.2c2.5,0,5.2,0.4,7.1,1.9c1.8,1.4,2.5,3.6,2.6,5.8c0.1,3-0.8,6-2.9,8.1
		c-2.2,2.2-5.3,3.5-8.1,4.7l5.5,7.4c1.5-2.2,2.6-5,3.2-7.6h6.1c-1.1,4.2-3.3,8.5-5.9,11.9l5.2,6.2l-4.5,3.9l-4.7-6.1
		c-5,5.2-12.7,7.6-19.7,5.2c-6.8-2.4-7.1-12-3.6-17.3c2.3-3.4,6.1-5.4,9.8-6.8c-2.1-3.7-2.4-8.7-0.2-12.5
		C182.4,23.5,186.6,22.2,190.5,22.2z M181.6,59c3.4,0,6.9-1.9,9.1-4.5l-7.8-11c-2,0.9-4.1,2-5.5,3.7c-1.4,1.7-2,3.9-2.1,6
		c-0.1,1.6,0.2,3.2,1.4,4.3C178,58.8,179.9,59,181.6,59z M186.6,29.3c-2,2.6-1.6,7.2,0.1,9.8c3.5-1.6,6.9-3.8,6.9-8.1
		c0-1.5-0.6-2.8-2.1-3.2C189.9,27.3,187.8,27.8,186.6,29.3C185.8,30.4,187.5,28.2,186.6,29.3z"/>
	<path id="XMLID_20_" class="st0" d="M230.3,63.9l4.1-18h-15.4l-4.1,18h-6.7l9.5-41.1h6.7l-4,17.3h15.4l4-17.3h6.7l-9.5,41.1H230.3z
		"/>
	<path id="XMLID_22_" class="st0" d="M256.1,33.3c2.5,0,5.2,0.4,7.3,1.8c1.9,1.3,3,3.3,3.5,5.5c0.7,3.2,0.4,6.8-0.3,9.9
		c-0.8,3.4-2.1,6.6-4.5,9.3c-2.2,2.5-5.1,4.3-8.5,4.7c-2.6,0.3-5.6,0-8-1.2c-5.1-2.6-5.2-9.1-4.4-14.1
		C242.6,41.8,247.7,33.3,256.1,33.3z M252.1,59.1c3.8,0,6-3.4,7.3-6.6c0.7-1.9,1.2-3.9,1.4-5.9c0.2-1.9,0.4-4.1-0.7-5.8
		c-1.9-3-6.2-2.2-8.3,0c-2.7,2.8-3.9,7.1-4.2,10.9c-0.2,1.8-0.3,4,0.6,5.6C249,58.6,250.6,59.1,252.1,59.1z"/>
	<path id="XMLID_25_" class="st0" d="M280,38.8c-1.7,0-3.4,0.5-4.4,2c-0.9,1.2-1,3.2,0.5,4.1c1.4,0.9,3.2,1.2,4.8,1.7
		c1.7,0.5,3.3,1.1,4.8,2.1c2.4,1.5,2.4,4.8,1.9,7.2c-0.5,2.5-1.8,4.7-3.9,6.2c-5,3.5-12.3,3-17.8,1.2l-1.3-0.4l1.2-4.9
		c2.3,0.4,4.7,0.8,7.1,1c1.8,0.1,3.8,0.2,5.5-0.4c1.4-0.5,2.5-1.5,2.8-2.9c0.4-2-0.8-2.7-2.5-3.3c-3.7-1.2-9.6-1.9-10.2-6.8
		c-0.5-4.3,1.7-8.4,5.4-10.6c4.6-2.7,11-2,15.9-0.5l1.3,0.4l-1.2,4.9C285.8,39.1,282.6,38.8,280,38.8z"/>
	<path id="XMLID_27_" class="st0" d="M296.6,64.6c-3.5,0-6.1-1.7-7.4-5c-1.4-3.6-0.8-8.1,0.1-11.7c0.9-3.7,2.4-7.7,5.1-10.5
		c2.6-2.7,5.9-4.2,9.6-4.1c3.6,0.1,7.3,0.7,10.9,1.3l2.5,0.4L313,54.4l-1.6,9.4l-6.4,0.2c0.4-2.9,0.7-4.7,0.9-5.5
		c-1.9,2.5-4,4.3-6.4,5.3C298.5,64.4,297.5,64.6,296.6,64.6z M310,39.7c-2-0.4-4.1-0.9-6.2-0.9c-2,0-3.5,1.2-4.7,2.7
		c-3,3.8-4.3,9-3.9,13.8c0.2,2.4,1.5,4.2,4.1,3.6c2.5-0.5,4.8-2.9,6.4-4.7l1.4-1.6L310,39.7z"/>
	<path id="XMLID_30_" class="st0" d="M312,63.9l6.9-30h6.5l-6.9,30c-0.8,3.2-1.6,7.6-4.6,9.6c-2.1,1.4-4.8,2.9-8.1,4.3l-2.1-5.2
		c1.9-1,4-2,5.7-3.4C311,67.9,311.6,65.8,312,63.9z M319.8,29.8l1.6-7h6.5l-1.6,7H319.8z"/>
	<path id="XMLID_33_" class="st0" d="M330.2,64.6c-3.5,0-6.1-1.7-7.4-5c-1.4-3.6-0.8-8.1,0.1-11.7c0.9-3.7,2.4-7.7,5.1-10.5
		c2.6-2.7,5.9-4.2,9.6-4.1c3.6,0.1,7.3,0.7,10.9,1.3l2.5,0.4l-4.5,19.4l-1.6,9.4l-6.4,0.2c0.4-2.9,0.7-4.7,0.9-5.5
		c-1.9,2.5-4,4.3-6.4,5.3C332,64.4,331.1,64.6,330.2,64.6z M343.6,39.7c-2-0.4-4.1-0.9-6.2-0.9c-2,0-3.5,1.2-4.7,2.7
		c-3,3.8-4.3,9-3.9,13.8c0.2,2.4,1.5,4.2,4.1,3.6c2.5-0.5,4.8-2.9,6.4-4.7l1.4-1.6L343.6,39.7z"/>
</g>
</svg>
